<svg width="183" height="30" viewBox="0 0 183 30" fill="none" xmlns="http://www.w3.org/2000/svg">
<path d="M38.5439 18.0686V11.8246C38.5439 7.38047 40.3838 4.86914 45.2448 4.86914H51.5463C56.4073 4.86914 58.2429 7.38047 58.2429 11.8246V12.056C58.2626 12.2124 58.2094 12.3692 58.0988 12.4807C57.9883 12.5921 57.8329 12.6458 57.6778 12.626H56.0419C55.6722 12.626 55.4767 12.4546 55.4767 12.1674V11.7389C55.4767 8.49043 54.4017 7.57761 51.5463 7.57761H45.2448C42.3894 7.57761 41.3144 8.49043 41.3144 11.7389V18.1672C41.3144 21.3899 42.4192 22.2985 45.2448 22.2985H51.5463C54.372 22.2985 55.4767 21.3899 55.4767 18.1672V17.5287C55.4574 17.372 55.5105 17.215 55.6208 17.1029C55.7311 16.9908 55.8864 16.9361 56.0419 16.9544H57.6778C57.8283 16.9344 57.9798 16.9842 58.0896 17.09C58.1994 17.1958 58.2558 17.3461 58.2429 17.4987V18.0686C58.2429 22.487 56.4073 24.9941 51.5463 24.9941H45.2448C40.3668 24.9941 38.5439 22.487 38.5439 18.0686Z" fill="white"/>
<path fill-rule="evenodd" clip-rule="evenodd" d="M60.6436 15.2187V18.6685C60.6436 22.9112 61.7738 24.994 66.4946 24.9983H74.5042C74.6593 25.0181 74.8147 24.9644 74.9253 24.853C75.0358 24.7415 75.089 24.5847 75.0694 24.4283V23.0355C75.0873 22.8795 75.0335 22.7238 74.9234 22.6127C74.8133 22.5017 74.6589 22.4475 74.5042 22.4655H66.5626C63.9324 22.4655 63.312 21.8398 63.312 18.9042V18.36H75.762C75.917 18.3798 76.0725 18.3261 76.183 18.2146C76.2935 18.1032 76.3467 17.9464 76.3271 17.79V15.2187C76.3271 11.0831 75.1968 8.97461 70.4803 8.97461H66.4946C61.7738 8.97461 60.6436 11.0831 60.6436 15.2187ZM73.6714 15V15.93L63.2993 15.9129V15C63.2993 12.1244 63.9196 11.4945 66.5498 11.4945H70.4208C73.051 11.4945 73.6714 12.1244 73.6714 15Z" fill="white"/>
<path d="M78.9276 24.4283V3.93046C78.908 3.77406 78.9612 3.6173 79.0717 3.50582C79.1822 3.39434 79.3377 3.34069 79.4927 3.36049H81.0182C81.1728 3.34243 81.3272 3.39665 81.4373 3.5077C81.5474 3.61875 81.6012 3.77446 81.5833 3.93046V24.4283C81.6029 24.5847 81.5497 24.7414 81.4392 24.8529C81.3287 24.9644 81.1732 25.018 81.0182 24.9982H79.4927C79.3377 25.018 79.1822 24.9644 79.0717 24.8529C78.9612 24.7414 78.908 24.5847 78.9276 24.4283Z" fill="white"/>
<path fill-rule="evenodd" clip-rule="evenodd" d="M84.4644 15.2187V18.6685C84.4644 22.9112 85.5946 24.994 90.3154 24.9983H98.2995C98.4546 25.0181 98.61 24.9644 98.7206 24.853C98.8311 24.7415 98.8843 24.5847 98.8647 24.4283V23.0355C98.8826 22.8795 98.8288 22.7238 98.7187 22.6127C98.6086 22.5017 98.4542 22.4475 98.2995 22.4655H90.3579C87.7277 22.4655 87.1073 21.8398 87.1073 18.9042V18.36H99.5828C99.7378 18.3798 99.8933 18.3261 100.004 18.2146C100.114 18.1032 100.168 17.9464 100.148 17.79V15.2187C100.148 11.0831 99.0176 8.97461 94.3011 8.97461H90.3154C85.5946 8.97461 84.4644 11.0831 84.4644 15.2187ZM97.4921 15V15.93L87.12 15.9129V15C87.12 12.1244 87.7403 11.4945 90.3705 11.4945H94.2415C96.8717 11.4945 97.4921 12.1244 97.4921 15Z" fill="white"/>
<path d="M112.496 8.97474C112.651 8.95495 112.806 9.0086 112.917 9.12008C113.027 9.23155 113.08 9.38832 113.061 9.54472V10.9418C113.08 11.0982 113.027 11.255 112.917 11.3665C112.806 11.4779 112.651 11.5316 112.496 11.5118H108.672C106.436 11.5118 105.421 12.0261 105.421 15.0731V24.4284C105.441 24.5848 105.387 24.7416 105.277 24.8531C105.166 24.9646 105.011 25.0182 104.856 24.9984H103.33C103.173 25.0242 103.012 24.9732 102.897 24.8609C102.783 24.7486 102.727 24.5883 102.748 24.4284V9.54472C102.729 9.38832 102.782 9.23155 102.892 9.12008C103.003 9.0086 103.158 8.95495 103.313 8.97474H104.839C104.993 8.95669 105.148 9.01091 105.258 9.12196C105.368 9.23301 105.422 9.38871 105.404 9.54472V11.0575C106.024 9.66043 107.325 8.97474 109.895 8.97474H112.496Z" fill="white"/>
<path fill-rule="evenodd" clip-rule="evenodd" d="M115.122 5.44297V24.428C115.098 24.5864 115.149 24.747 115.26 24.8617C115.371 24.9763 115.529 25.0315 115.687 25.0108H127.869C132.7 25.0108 134.54 22.7609 134.54 17.5711V12.4241C134.54 7.20862 132.7 4.86871 127.869 4.86871H115.687C115.531 4.85039 115.376 4.90515 115.266 5.01723C115.156 5.1293 115.102 5.28627 115.122 5.44297ZM131.795 17.5325C131.795 21.3809 130.665 22.3195 127.614 22.3195L117.892 22.3152V7.58145H127.614C130.695 7.58145 131.795 8.57141 131.795 12.4284V17.5325Z" fill="white"/>
<path fill-rule="evenodd" clip-rule="evenodd" d="M141.768 15.7286C137.927 16.1529 136.712 17.4643 136.712 20.5713C136.712 23.6269 138.857 24.994 142.639 24.994H144.764C147.874 24.994 148.949 24.2269 149.684 22.5427V24.4283C149.665 24.5847 149.718 24.7415 149.828 24.8529C149.939 24.9644 150.094 25.0181 150.249 24.9983H151.788C151.943 25.0181 152.098 24.9644 152.209 24.8529C152.319 24.7415 152.372 24.5847 152.353 24.4283V13.6887C152.353 10.4274 150.9 8.9746 146.829 8.9746H138.547C138.393 8.95655 138.238 9.01077 138.128 9.12182C138.018 9.23287 137.964 9.38858 137.982 9.54458V10.9374C137.963 11.0938 138.016 11.2506 138.126 11.362C138.237 11.4735 138.392 11.5272 138.547 11.5074H146.774C149.145 11.5074 149.684 11.9916 149.684 13.8173C149.684 14.503 149.455 14.8715 148.779 14.9572L141.768 15.7286ZM149.663 18.8057C149.663 21.4841 148.779 22.5084 145.839 22.5084L142.626 22.5127C140.362 22.5127 139.376 21.7455 139.376 20.3485C139.376 18.8099 139.911 18.27 142.172 18.0385L149.663 17.2414V18.8057Z" fill="white"/>
<path d="M156.151 18.951V11.4556H154.401C154.243 11.4814 154.082 11.4304 153.968 11.3181C153.853 11.2058 153.798 11.0454 153.819 10.8856V9.54424C153.799 9.38784 153.852 9.23108 153.963 9.1196C154.073 9.00812 154.229 8.95447 154.384 8.97427C156.7 8.94855 156.899 8.71713 156.933 5.46869C156.933 5.07013 157.129 4.86871 157.494 4.86871H158.229C158.385 4.85039 158.54 4.90515 158.65 5.01723C158.761 5.1293 158.814 5.28627 158.794 5.44297V8.97427H165.291C165.446 8.95447 165.602 9.00812 165.712 9.1196C165.823 9.23108 165.876 9.38784 165.856 9.54424V10.8856C165.876 11.042 165.823 11.1988 165.712 11.3103C165.602 11.4217 165.446 11.4754 165.291 11.4556H158.79V19.1696C158.79 21.7409 159.585 22.5037 162.41 22.5037H165.291C165.447 22.4854 165.602 22.5402 165.712 22.6523C165.823 22.7643 165.876 22.9213 165.856 23.078V24.428C165.875 24.5837 165.821 24.7392 165.71 24.8496C165.6 24.9601 165.446 25.0132 165.291 24.9937H162.41C157.311 24.9937 156.151 22.9409 156.151 18.951Z" fill="white"/>
<path fill-rule="evenodd" clip-rule="evenodd" d="M171.92 15.7288C168.079 16.153 166.863 17.4644 166.863 20.5714C166.863 23.627 169.009 24.9941 172.791 24.9941H174.916C178.026 24.9941 179.101 24.227 179.832 22.5428V24.4284C179.813 24.5861 179.868 24.7436 179.98 24.855C180.092 24.9664 180.249 25.0194 180.405 24.9984H181.931C182.086 25.0182 182.241 24.9646 182.352 24.8531C182.462 24.7416 182.516 24.5848 182.496 24.4284V13.6888C182.496 10.4275 181.039 8.97474 176.972 8.97474H168.691C168.535 8.95495 168.38 9.0086 168.269 9.12008C168.159 9.23155 168.106 9.38832 168.125 9.54472V10.9375C168.106 11.0939 168.159 11.2507 168.269 11.3622C168.38 11.4736 168.535 11.5273 168.691 11.5075H176.921C179.296 11.5075 179.832 11.9918 179.832 13.8174C179.832 14.5031 179.607 14.8717 178.931 14.9574L171.92 15.7288ZM179.815 18.8058C179.815 21.4843 178.931 22.5085 175.991 22.5085L172.795 22.5128C170.535 22.5128 169.545 21.7457 169.545 20.3486C169.545 18.8101 170.084 18.2701 172.345 18.0387L179.815 17.2416V18.8058Z" fill="white"/>
<path d="M2.88941 29.9994H14.9272L14.2346 24.6853H6.46718C5.83356 24.6853 5.31991 24.1673 5.31991 23.5282V6.48033C5.31991 5.84058 5.83288 5.3213 6.46718 5.31894H11.7021L11.0053 0.000574452H2.88941C1.33213 -0.0306074 0.0417271 1.21152 0 2.7819V27.2095C0.0371359 28.7833 1.32889 30.0306 2.88941 29.9994Z" fill="white"/>
<path d="M25.2144 0.000570158H13.1724L13.865 5.31894H21.6366C22.2709 5.3213 22.7839 5.84058 22.7839 6.48032V23.5282C22.7839 24.1673 22.2703 24.6853 21.6366 24.6853H16.4017L17.0986 29.9994H25.2144C26.7717 30.0306 28.0621 28.7885 28.1038 27.2181V2.79046C28.0667 1.21671 26.7749 -0.030557 25.2144 0.000570158Z" fill="white"/>
</svg>
