<?xml version="1.0" encoding="UTF-8"?>
<svg id="Layer_1" data-name="Layer 1" xmlns="http://www.w3.org/2000/svg" xmlns:xlink="http://www.w3.org/1999/xlink" viewBox="0 0 818.54 267.64">
  <defs>
    <style>
      .cls-1 {
        fill: none;
      }

      .cls-2 {
        fill: #5a0710;
      }

      .cls-3 {
        fill: #e74103;
      }

      .cls-4 {
        fill: #d8120e;
      }

      .cls-5 {
        fill: #fd7101;
      }

      .cls-6 {
        fill: #e88707;
      }

      .cls-7 {
        fill: #bf0713;
      }

      .cls-8 {
        fill: url(#linear-gradient-8);
      }

      .cls-9 {
        fill: url(#linear-gradient-7);
      }

      .cls-10 {
        fill: url(#linear-gradient-5);
      }

      .cls-11 {
        fill: url(#linear-gradient-6);
      }

      .cls-12 {
        fill: url(#linear-gradient-9);
      }

      .cls-13 {
        fill: url(#linear-gradient-4);
      }

      .cls-14 {
        fill: url(#linear-gradient-3);
      }

      .cls-15 {
        fill: url(#linear-gradient-2);
      }

      .cls-16 {
        fill: #560810;
      }

      .cls-17 {
        fill: #79050d;
      }

      .cls-18 {
        fill: url(#linear-gradient);
      }

      .cls-19 {
        fill: #c80714;
      }

      .cls-20 {
        fill: #8b090f;
      }

      .cls-21 {
        fill: #511418;
      }

      .cls-22 {
        fill: #6c080e;
      }

      .cls-23 {
        fill: #ef5900;
      }

      .cls-24 {
        fill: #be0613;
      }

      .cls-25 {
        fill: #5b0711;
      }

      .cls-26 {
        fill: #de2006;
      }

      .cls-27 {
        fill: #cd0b11;
      }

      .cls-28 {
        fill: url(#linear-gradient-10);
      }

      .cls-29 {
        fill: url(#linear-gradient-11);
      }

      .cls-30 {
        fill: url(#linear-gradient-12);
      }

      .cls-31 {
        fill: url(#linear-gradient-13);
      }

      .cls-32 {
        fill: url(#linear-gradient-19);
      }

      .cls-33 {
        fill: url(#linear-gradient-14);
      }

      .cls-34 {
        fill: url(#linear-gradient-21);
      }

      .cls-35 {
        fill: url(#linear-gradient-20);
      }

      .cls-36 {
        fill: url(#linear-gradient-22);
      }

      .cls-37 {
        fill: url(#linear-gradient-23);
      }

      .cls-38 {
        fill: url(#linear-gradient-15);
      }

      .cls-39 {
        fill: url(#linear-gradient-16);
      }

      .cls-40 {
        fill: url(#linear-gradient-17);
      }

      .cls-41 {
        fill: url(#linear-gradient-18);
      }

      .cls-42 {
        fill: #f67c00;
      }

      .cls-43 {
        fill: #1f1335;
      }

      .cls-44 {
        fill: #c70712;
      }

      .cls-45 {
        fill: #c21609;
      }

      .cls-46 {
        fill: #540810;
      }

      .cls-47 {
        fill: #960c0c;
      }

      .cls-48 {
        fill: #65080d;
      }

      .cls-49 {
        fill: #ed2401;
      }

      .cls-50 {
        fill: #e01f06;
      }
    </style>
    <linearGradient id="linear-gradient" x1="-5403.41" y1="-470.86" x2="-5369.05" y2="-444.86" gradientTransform="translate(2788.73 383.72) scale(.5)" gradientUnits="userSpaceOnUse">
      <stop offset="0" stop-color="#71060a"/>
      <stop offset="1" stop-color="#b90711"/>
    </linearGradient>
    <linearGradient id="linear-gradient-2" x1="-5433.45" y1="-554.51" x2="-5490.29" y2="-550.51" gradientTransform="translate(2788.73 383.72) scale(.5)" gradientUnits="userSpaceOnUse">
      <stop offset="0" stop-color="#d01608"/>
      <stop offset="1" stop-color="#9b0a0d"/>
    </linearGradient>
    <linearGradient id="linear-gradient-3" x1="-5391.63" y1="-491.9" x2="-5399.83" y2="-537.23" gradientTransform="translate(2788.73 383.72) scale(.5)" gradientUnits="userSpaceOnUse">
      <stop offset=".17" stop-color="#f64601"/>
      <stop offset=".4" stop-color="#f43c01"/>
      <stop offset=".64" stop-color="#ec4302"/>
      <stop offset=".86" stop-color="#e02901"/>
    </linearGradient>
    <linearGradient id="linear-gradient-4" x1="150.11" y1="127.6" x2="183.88" y2="127.6" gradientUnits="userSpaceOnUse">
      <stop offset=".19" stop-color="#820a13"/>
      <stop offset=".85" stop-color="#7b040d"/>
    </linearGradient>
    <linearGradient id="linear-gradient-5" x1="-5358.4" y1="-562" x2="-5401.26" y2="-514.61" gradientTransform="translate(2788.73 383.72) scale(.5)" gradientUnits="userSpaceOnUse">
      <stop offset=".07" stop-color="#f28b07"/>
      <stop offset=".5" stop-color="#f2cf02"/>
    </linearGradient>
    <linearGradient id="linear-gradient-6" x1="107.72" y1="99.87" x2="111.98" y2="108.85" gradientUnits="userSpaceOnUse">
      <stop offset="0" stop-color="#fc650a"/>
      <stop offset=".04" stop-color="#fa6f06"/>
      <stop offset=".1" stop-color="#f97603"/>
      <stop offset=".28" stop-color="#f97803"/>
    </linearGradient>
    <linearGradient id="linear-gradient-7" x1="100.15" y1="96.53" x2="112.28" y2="96.53" gradientUnits="userSpaceOnUse">
      <stop offset="0" stop-color="#fc9406"/>
      <stop offset="1" stop-color="#fb8603"/>
    </linearGradient>
    <linearGradient id="linear-gradient-8" x1="-5287.2" y1="-537.84" x2="-5248.82" y2="-515.67" gradientTransform="translate(2788.73 383.72) scale(.5)" gradientUnits="userSpaceOnUse">
      <stop offset="0" stop-color="#a6030c"/>
      <stop offset=".35" stop-color="#c3090a"/>
      <stop offset=".39" stop-color="#9d0a0b"/>
      <stop offset="1" stop-color="#8b0813"/>
    </linearGradient>
    <linearGradient id="linear-gradient-9" x1="-5293.33" y1="-553.72" x2="-5272.25" y2="-532.62" gradientTransform="translate(2788.73 383.72) scale(.5)" gradientUnits="userSpaceOnUse">
      <stop offset=".22" stop-color="#ee3303"/>
      <stop offset=".86" stop-color="#eb2f03"/>
    </linearGradient>
    <linearGradient id="linear-gradient-10" x1="157.85" y1="124.02" x2="182.85" y2="124.02" gradientUnits="userSpaceOnUse">
      <stop offset="0" stop-color="#bc0415"/>
      <stop offset="1" stop-color="#9c0512"/>
    </linearGradient>
    <linearGradient id="linear-gradient-11" x1="54.77" y1="109.24" x2="85.8" y2="109.24" gradientUnits="userSpaceOnUse">
      <stop offset="0" stop-color="#fb6c01"/>
      <stop offset="1" stop-color="#fa5701"/>
    </linearGradient>
    <linearGradient id="linear-gradient-12" x1="-5358.32" y1="-538.76" x2="-5318.61" y2="-475.79" gradientTransform="translate(2788.73 383.72) scale(.5)" gradientUnits="userSpaceOnUse">
      <stop offset="0" stop-color="#c21b09"/>
      <stop offset=".61" stop-color="#eb4f01"/>
      <stop offset=".72" stop-color="#e73404"/>
      <stop offset="1" stop-color="#eb4b03"/>
    </linearGradient>
    <linearGradient id="linear-gradient-13" x1="-5339.37" y1="-541.74" x2="-5345.34" y2="-485.56" gradientTransform="translate(2788.73 383.72) scale(.5)" gradientUnits="userSpaceOnUse">
      <stop offset="0" stop-color="#de3b04"/>
      <stop offset="1" stop-color="#f3ac0d"/>
    </linearGradient>
    <linearGradient id="linear-gradient-14" x1="-5340.97" y1="-538.33" x2="-5366.03" y2="-501.99" gradientTransform="translate(2788.73 383.72) scale(.5)" gradientUnits="userSpaceOnUse">
      <stop offset="0" stop-color="#ed5802"/>
      <stop offset="1" stop-color="#f2c504"/>
    </linearGradient>
    <linearGradient id="linear-gradient-15" x1="-5329.53" y1="-557.03" x2="-5347.77" y2="-547.62" gradientTransform="translate(2788.73 383.72) scale(.5)" gradientUnits="userSpaceOnUse">
      <stop offset="0" stop-color="#fd9b01"/>
      <stop offset="1" stop-color="#fec708"/>
    </linearGradient>
    <linearGradient id="linear-gradient-16" x1="106.46" y1="154.56" x2="106.46" y2="122.78" gradientUnits="userSpaceOnUse">
      <stop offset="0" stop-color="#fa880b"/>
      <stop offset="1" stop-color="#fc6202"/>
    </linearGradient>
    <linearGradient id="linear-gradient-17" x1="115.74" y1="113.8" x2="115.74" y2="91.27" gradientUnits="userSpaceOnUse">
      <stop offset=".09" stop-color="#fbc700"/>
      <stop offset=".3" stop-color="#f3c803"/>
      <stop offset="1" stop-color="#eb9e1e"/>
    </linearGradient>
    <linearGradient id="linear-gradient-18" x1="84.56" y1="134.26" x2="84.56" y2="103.23" gradientUnits="userSpaceOnUse">
      <stop offset="0" stop-color="#fd9105"/>
      <stop offset="1" stop-color="#fb6200"/>
    </linearGradient>
    <linearGradient id="linear-gradient-19" x1="82.4" y1="159.26" x2="82.4" y2="135.77" gradientUnits="userSpaceOnUse">
      <stop offset="0" stop-color="#5e0612"/>
      <stop offset="1" stop-color="#620411"/>
    </linearGradient>
    <linearGradient id="linear-gradient-20" x1="95.71" y1="120.32" x2="105.64" y2="120.32" gradientUnits="userSpaceOnUse">
      <stop offset="0" stop-color="#fe8c1d"/>
      <stop offset="1" stop-color="#fe861b"/>
    </linearGradient>
    <linearGradient id="linear-gradient-21" x1="123.11" y1="156.54" x2="123.11" y2="134.33" gradientUnits="userSpaceOnUse">
      <stop offset=".31" stop-color="#f64501"/>
      <stop offset=".98" stop-color="#cc0303"/>
    </linearGradient>
    <linearGradient id="linear-gradient-22" x1="137.97" y1="132.8" x2="144.72" y2="104.24" gradientUnits="userSpaceOnUse">
      <stop offset=".32" stop-color="#f35401"/>
      <stop offset="1" stop-color="#ed3703"/>
    </linearGradient>
    <linearGradient id="linear-gradient-23" x1="141.94" y1="125.05" x2="148.9" y2="129.07" gradientUnits="userSpaceOnUse">
      <stop offset="0" stop-color="#cf0605"/>
      <stop offset=".53" stop-color="#c3090a"/>
      <stop offset="1" stop-color="#cb0404"/>
    </linearGradient>
  </defs>
  <g>
    <g>
      <path class="cls-43" d="M217.75,146.25v19.46h-12.44v-53.72h45.09c12.51,0,17.24,5.26,17.24,12.97v8.32c0,7.71-4.73,12.97-17.24,12.97h-32.66ZM255.22,125.19c0-2.06-1.22-3.51-3.66-3.51h-33.8v14.8h33.88c2.44,0,3.59-1.14,3.59-3.13v-8.16Z"/>
      <path class="cls-43" d="M327.64,165.7v-23.5h-40.9v23.5h-12.44v-53.72h12.44v20.45h40.9v-20.45h12.51v53.72h-12.51Z"/>
      <path class="cls-43" d="M366.41,165.7c-12.51,0-17.24-5.26-17.24-12.97v-27.77c0-7.71,4.73-12.97,17.24-12.97h36.4c12.51,0,17.24,5.26,17.24,12.97v27.77c0,7.71-4.73,12.97-17.24,12.97h-36.4ZM407.61,124.81c0-2.14-1.68-3.13-4.81-3.13h-36.4c-3.13,0-4.81.99-4.81,3.13v28c0,2.21,1.68,3.13,4.81,3.13h36.4c3.13,0,4.81-.92,4.81-3.13v-28Z"/>
      <path class="cls-43" d="M560.62,165.7l-55.93-39.14v39.14h-10.83v-53.72h10.76l51.2,36.78v-36.78h10.91v53.72h-6.1Z"/>
      <path class="cls-43" d="M576.5,165.7v-53.72h12.44v53.72h-12.44Z"/>
      <path class="cls-43" d="M654.64,165.7l-21.9-20.22-21.75,20.22h-16.25l30.14-26.86-30.14-26.86h16.17l21.82,20.3,21.82-20.3h16.02l-29.91,26.32,30.06,27.39h-16.1Z"/>
      <path class="cls-42" d="M728.99,165.8l-17.5-27.52-17.87,27.48-22.48-.06,35.79-53.72h9.15l35.56,53.72-22.64.09Z"/>
      <path class="cls-42" d="M756.53,165.7v-53.72h15.79v53.72h-15.79Z"/>
    </g>
    <rect class="cls-43" x="429.14" y="155.94" width="56.62" height="9.77"/>
    <rect class="cls-43" x="429.14" y="112.03" width="56.62" height="9.77"/>
    <rect class="cls-43" x="429.14" y="132.49" width="56.62" height="9.77"/>
  </g>
  <g>
    <g>
      <path class="cls-17" d="M77.17,128.31c3.42,5.66,6.87,11.31,10.77,16.71l3.01,4.17,2.88,3.86c1.89,2.54,1.01,2.48,1.86,4.2.23.46.25,1.01.22,1.49-4.2-4-8.83-7.46-14.12-10l-4.49-2.16-.43-.85-1.65-1.85-2.97-3.32-1.77-2.21c-.15-.19-.32-.35-.5-.41-.4-.59-1.11-1.17-1.44-1.81-.37-.73-.57-.79-1.13-1.3-.6-.55-1.1-1.81-1.66-2.42-.84-1.31-1.81-2.52-2.78-3.85l-6.08-8.13c-.24-.33-.6-.7-.78-.99l-1.32-1.88c.41.44,1.59,1.04,1.99,1.23l4.96,2.33,3.78,1.7,6.83,3.06,3.74,1.71c.33.15.87.42,1.06.72Z"/>
      <path class="cls-18" d="M108.78,156.08l-1.27-1.04c-2.55,4.3-4.41,8.7-5.7,13.42-.1.37-.23.69-.34.99-1.84-2.86-3.27-5.95-4.63-9.14-.25-.59-.49-1.17-.92-1.59.03-.48,0-1.03-.22-1.49-.85-1.71.03-1.66-1.86-4.2l.74.74c-.83-3.37-1.32-5.54-.94-9.08.07-.7.54-3.12.9-3.62.05-.07.28.17.36.27l2.43,2.78,1.99,2.32c.78.9,1.71,1.68,2.52,2.58l1.88,2.07,3.8,3.84.46-.36c.24-.19.79,1.51.79,1.52Z"/>
      <path class="cls-48" d="M108.78,156.08c.43.89.96,1.76,1.34,2.67l1.34,3.22c.51,1.22.93,2.43,1.29,3.65l.4,1.36c.63,2.13.91,4.33,1.11,6.56.29,3.28-.09,6.44-.97,9.54h-.22c-.08-.04-.25-.22-.32-.28,0,0,.61-1.25.61-1.22l.26-.47.4-3.67c.13-1.2.03-2.53.07-3.74l-.18-.16c0-1.02-.02-2.02-.23-3.09l-.59-3.06c-.11-.09-.2,0-.25.06-.05.08-.23.25-.29.33l-2.81,3.51-2.99,3.57-.52.52-.25.29c-1.17-1.41-2.38-2.93-3.46-4.5-.4-.58-.7-1.15-1.03-1.72.11-.3.24-.62.34-.99,1.29-4.72,4.01-12.31,6.18-13.9l.79,1.52Z"/>
      <path class="cls-21" d="M133.85,155.09c-.63.86-2.1,1.6-2.81,2.64-2.13,5.94-5.14,11.87-9.14,16.67l.4-1.13c.45-.86.69-1.79,1.61-3.21l.96-1.52.4-.65c.88-1.25,1.06-1.72,1.83-3.04l1.02-1.46.6-.67c.11-.29.38-.63.52-.98l1.63-4.22,1.21-1.29c-.53.4,2.58-1.76,1.75-1.15Z"/>
      <path class="cls-15" d="M53.16,101.23c.8.95,2.99,3.31,3.96,4.09,3.61,3.91,7.62,7.55,11.82,10.82l1.52,1.18c.12.1.32.33.44.45l5.78,9.87c.14.23.44.47.5.68-.18-.3-.72-.57-1.06-.72l-3.74-1.71-6.83-3.06-3.78-1.7-4.96-2.33c-.41-.19-1.14-.5-1.65-.75h0l-.51-.51c-4.99-5.48-10.6-18.1-10.55-30.37h0s1.33,4.3,2.47,6.01c1.94,2.94,4.18,5.58,6.59,8.06Z"/>
      <path class="cls-14" d="M87.06,129.52c1.68,3.26,2.31,4.4,4.3,7.55,1.17,1.14,2.09,2.24,3,3.67.33-.31.43-.79.62-1.24.41-.98.86-1.94,1.35-2.87l1.24-2.37.96.43c.8,2.19,1.75,4.38,2.96,6.37l2.86,4.92,3.62,8.13c.43-.47.89-1.01,1.12-1.64l2.61-4.85,1.11-1.37c.1-.1,3.29-4.65,3.4-4.71-.06.27-2.27,5.43-2.36,5.7l-.76,2.35c-.11.35-.24.81-.35,1.09-.65,1.55-1.04,3.22-1.5,4.84l-.83,2.95c-.03.09-.25.28-.29.28-.38-.91-.91-1.78-1.34-2.67,0,0-.79-1.52-.79-1.52l-.45.41-3.81-3.89-1.88-2.07c-.82-.9-1.75-1.67-2.52-2.58l-1.99-2.32-2.43-2.78c-.08-.09-.31-.34-.36-.27-.37.5-.83,2.92-.9,3.62-.37,3.53.11,5.7.94,9.08l-.74-.74-2.88-3.86-3.01-4.17c-3.9-5.4-7.35-11.04-10.77-16.71-.05-.21-.36-.45-.5-.68l-5.78-9.87c1.2.59,2.29,1.44,3.5,2.17l4.4,2.64,7,4.09,1.27,2.85Z"/>
      <path class="cls-44" d="M65.78,132.4c.55.61,1,1.37,1.61,1.92l.55,1.1c-.38-.19-.86-.38-1.16-.67-.89-.85-1.84-1.41-2.95-1.92-.11-.05-.32-.2-.42-.28l-2.27-1.71c-.26-.2-.76-.63-.57-.97l.51-.9-.32-1.72c-.06-.34-.16-.67.16-.92.44.51.87.95,1.23,1.44l3.08,4.12c.15.2.38.38.55.49Z"/>
      <path class="cls-2" d="M114,171.73c-.57-3.47-.63-3.54-.84-4.62l-.13-.4c-.31.42-.59.77-.65.85l-2.84,3.62-3.65,4.41c1.37,1.66,2.67,3.22,4.27,4.84.67.68,2.21,2.12,2.92,2.66,1.93-5.71.93-11.36.93-11.36Z"/>
      <path class="cls-13" d="M181.27,111.92c.48.14.89-.04,1.58-.21-.66,1.85-1.65,2.93-2.79,4.4-.22.28-13.24,14.15-13.24,14.15-.23.18-8.32,5.28-8.97,6.1l-2.67,3.34-2.43,2.84-2.38,2.48c-.17.18-.27.5-.25.73,3.57-1.59,4.1-1.88,8.14-3.92,9.99-6.28,13.66-10.58,13.66-10.58,3.11-3.15,6.33-8.5,6.33-8.5,1.8-3.04,4-7.47,4.62-9.51l1.02-3.72c-.62.77-1.49,1.45-2.6,2.43Z"/>
      <path class="cls-16" d="M148.88,139.89c-1.17.52-2.3,1.12-3.34,1.73-.2.03-.54.23-.72.3-1.5.57-2.97,1.05-4.41,1.89l-.57-.03-3.43,4.96c-.11.15-.37.31-.53.35,0,0-2.55,4.13-4.12,5.06-.06.55-.91,3.52-1.03,3.8-.53.4,7.3-5.6,5.98-4.59,5.52-4.19,4.15-2.92,11.13-6.49l2.27-1.16c-.01-.22,2.63-3.21,2.63-3.21l2.43-2.84,2.67-3.34c-1.04.3-7.05,2.7-8.97,3.55Z"/>
      <path class="cls-20" d="M73.84,142.09s-4.4-5.08-5.32-6.32l-.59-.34c-.38-.19-.86-.38-1.16-.67-.4-.07-4.12-3.06-4.12-3.06-.98-.92-5.06-4.5-5.53-4.34-.07-.11-4.29-3.4-4.05-3.32-.65-.82-1.68-1.31-2.3-2.24-1.7-1.38-2.41-3.06-4.07-4.82-.4-.42-.49-.6-.82-1.27-.85-1.72-2.16-3.03-2.61-5.1,1.23.78,2.26,2.02,3.62,2.92l.11-.25c-.31-.21-.73-.55-1.02-.78-1.1-.89-2.21-1.63-3.17-2.66-.43-.39-.37-.39-.43-.39l1.42,4.19s2.69,7.61,6.86,12.89c3.35,4.44,6.83,7.94,11.42,11.29,4.48,3.28,9.35,5.76,14.28,8.27l1.51.8-4.03-4.78ZM50.27,123.25l-.49.75c-.03.05-.1.09-.16.13.06-.04.12-.08.16-.13l.49-.75s.09-.07.18-.09c-.08.01-.15.04-.18.09Z"/>
      <path class="cls-10" d="M105.58,102.39c1.02.81-.03.66,1.74.91,2.02.29,3.75.56,5.9.54l-1.23-1.48v-.13c2.23,1.97,3.7,4.7,4.58,7.6.13.44.26.81.41,1.16v.14s-.15-.01-.15-.01c-2.08.88-5.39,4.44-6.92,6.29l-1.81,2.18-2.26,2.85c-.18.15-.29.24-.28.34l-3.42,4.67c-.89,1.22-1.88,2.42-2.59,3.76-.71.88-1.2,1.78-1.93,2.97l-.99-2.53c-.64-1.94-1.14-4.34-.95-6.46.18-1.94.34-3.76,1.11-5.61,0,0,.14-.25.3-.94.98-4.07,3.46-7.55,5.72-11.07l.75-1.46c-1.48-1.78-2.85-3.39-3.77-5.56.55.19,6.44,2.98,5.94,2.13l-.17-.29Z"/>
      <path class="cls-23" d="M86.4,110.86s-.46-.27,0,0c3.87,2.23,7.08,5.42,8.11,6.38l2.29,2.34c0,.06-.57,1.72-1.03,4.95-.32,2.27.53,6.68,1.8,9.74-.43-.43-4.18-8.74-4.36-9.12l-4.49-8.77c-.86-1.81-1.52-3.68-2.72-5.45l.39-.05Z"/>
      <path class="cls-11" d="M112.01,102.23l1.6,1.72c-2.15.02-4.52-.15-6.51-.61-1.29-.3-1.05-.34-1.35-.67s-1.87-2.56-2.08-3.03l2.23.68c.61.1,1.22.14,1.85.32,1.31.37,2.59.65,3.9.93.1.3.22.49.36.67Z"/>
      <path class="cls-9" d="M111.82,101.37l-.61-.83c-.52-.3-1.25-.43-1.74-.77-.62-.44-1.49-1.11-2.13-1.51-.63-.39-1.1-.71-1.65-1.22-1.37-1.28-2.76-2.51-3.72-4.23-.17-.3-.58-.75-.76-1.14-.06-.13-.21-.34-.31-.4-.2-.13-.4-.26-.74-.44.08.8.25,1.53.47,2.29.58,2,1.13,3.96,2.29,5.58-.09-.12,2.1,2.93,2.1,2.93,0,0-.96-1.18-1.16-1.66l.72.17c2.16.77,5.41,1.22,7.07,1.43.1.3.22.49.36.67h0s.01-.14.01-.14l.26-.19-.46-.54Z"/>
      <path class="cls-8" d="M182.72,88.96c-.37,5.84-1.15,14.91-10.79,28.6h0c-.17.22.04-.13-.08.2-.08.03-18.31,8.88-18.31,8.88-1.16.51-2.06.93-3.17,1.52-.93,1.36-3.6,5.23-4.01,5.87l-6.43,9.67-3.43,5.21h0c-1.98,3.3-4.78,5.42-4.75,5.32.84-2.64,1.53-6.57,1.07-9.25l-.59-3.49c-.03-.16-.17-.58-.22-.73.19-.15-.13.25,0,0,0,0,2.17-2.47,2.91-3.47.98-1.34,1.83-2.76,2.61-4.24l2.9-5.81.78-1.19,10.56-6.96c.75-.45,3.76-1.88,4.36-2.39.47-.25.99-.56,1.46-.93,2.85-2.24,4.17-4.26,6.75-6.8l3.57-3.57c.34-.34,1.82-1.07,2.03-1.45,1.31-1.15,2.58-2.06,3.55-3.59.35-.55,7.53-8.24,8.8-13.06.12.48.44,1.23.42,1.67Z"/>
      <path class="cls-12" d="M156.27,117.02h0l-15.24,9.37c-3.55,2.11-8.2,4.76-11.7,7.19-.11-.21,0,.14,0,0,0,0,1.67-3.27,3.21-6.73l3.96-8.76c.84-1.85,2.6-5.29,3.74-6.9l.17-.24c.04-.05-.21-.08-.24-.08,1.28-.88,2.25-1.47,4.08-2.46l4.56-2.16,3.3-1.52c4.22-1.95,10.48-5.45,14.08-8.33l2.93-2.34c.43-.34,1.33-1.14,1.77-1.47-.14.23.07,1.01-.09,1.24-.76,1.05-1.69,2.29-2.36,3.41l-8.58,14.86-2.5,3.74c-.15.26-1,.93-1.09,1.18Z"/>
      <path class="cls-28" d="M181.27,111.92c-1.91,1.64-10.1,6.38-10.41,6.23-.17.22-13.01,18.2-13.01,18.2,8.52-4.62,12.11-7.68,12.11-7.68,10.22-8.54,12.23-15.12,12.89-16.96,0,0-.57.21-1.58.21Z"/>
      <path class="cls-29" d="M85.8,126.66c-.21-.18-.31-.43-.37-.68l-2.72-5.23c-.26-.49-.63-.92-.78-1.4-.14-.24-.52-.9-.75-1.31l-3.86-6.58-1.01-1.34c-.4-1.21-.75-.88-1.17-2.04l-2.17-3.11c-.1-.14-.52-.44-.45-.6l.25-.54c-.88-.38-1.73-.98-2.65-1.46-3.38-1.76-6.57-3.7-9.63-5.88-1.76-1.25-4.07-3.32-5.71-4.69l.6.64c.22.23.39.79.58,1.03.74.93,1.44,1.92,2.12,2.96.27.41.52.82.81,1.12.91,1.55,2.3,3.96,3.35,5.42.11.31.27.73.43,1l4.62,7.86c.67,1.14,1.28,2.19,1.86,3.29.53.65.93,1.41,1.32,2.17.12.1.32.33.44.45,1.2.59,2.29,1.44,3.5,2.17l4.4,2.64,6.45,3.78.55.31h0Z"/>
      <path class="cls-5" d="M96.33,132.23c.07.16.28.42.41.56.82.9-.09,1.21,1.17,1.47l.05.64-.38-.64-1.24,2.37c-.49.93-.94,1.89-1.35,2.87-.19.46-.39,1.5-.45,1.58-.91-1.43-2.01-2.87-3.18-4.01-1.38-1.99-3.98-6.18-5.57-10.41h0c2.21,1.05,4.31,2.34,6.43,3.68l4.03,2.53.07-.64Z"/>
      <path class="cls-7" d="M66.78,134.76c-.4-.07-2.71-1.58-2.95-1.92,1.11.51,2.06,1.07,2.95,1.92Z"/>
      <path class="cls-22" d="M149.94,127.85c-.93,1.36-1.83,2.73-2.55,4.14-.47.49-8.23,12.94-8.23,12.94,0,0,6.19-3.13,6.39-3.16,1.04-.61,10.61-4.73,12.3-5.42.66-.82,8.05-10.83,8.05-10.83.04-.24,5.74-7.69,5.74-7.69,0,0-20.59,9.44-21.7,10.03Z"/>
      <path class="cls-46" d="M132.84,150.24c.99-4.2-.76-9.37-.76-9.37h0l-3.24,4.38-2.62,3.26-3.5,4.2s.27.22.58,3.09c.45,4.28.32,5.59-.32,8.36-.08.35-7.4,15.98-7.4,15.98-.03.03-3.01,3.18-2.29,2.91,2.64-2.33,6.9-6.46,9.05-9.24,0,0,6.56-11.36,6.98-11.84l.28-1.09c.45-.86-.47,1.18-.33.83l1.63-4.22s1.14-3.84,1.95-7.28ZM117.8,177.58h0c-.66.83-.66,1.02-.91,1.41.24-.39.25-.58.91-1.41ZM118.39,177.82c-.07.03-.16,0-.26-.04.1.05.19.07.26.04s.18-.11.28-.21c-.1.1-.2.18-.28.21ZM123.34,163.76l.31-1.45c.36.38.42,1.04-.31,1.45ZM123.98,160.52c-.08-.53-.08-1.04.04-1.63.31.53.43,1.1-.04,1.63Z"/>
      <path class="cls-24" d="M122.81,152.87l-.16-.27-.2-.06c-.04.75-1.51,3.05-1.64,3.26-.83,1.39-7.49,10.69-7.56,10.73l-.17.25c.63,2.13.97,4.53,1.17,6.76.29,3.28-.11,6.36-.99,9.47l-.19.08.16.14c.03.05,1.01-.96,1.06-1.01,0,0-.4.49,0,0,1.61-1.97,3.79-5.33,5.28-8.35,0,0,3.37-7.81,3.89-10.66,1.32-7.11-.65-10.33-.65-10.33ZM118.43,173.76s.05-.02.08-.02c-.03,0-.05.02-.08.02ZM117.6,173.94h0l-.32-.44c-.07-.04-.13-.05-.2-.07.07.03.13.04.2.07l.32.44ZM115.95,173.14c-.26-.03-.52-.04-.77-.07.25.03.51.04.77.07ZM115.84,179.85s0,0-.01.01c0,0,0,0,.01-.01ZM113.79,182.25c.16.3,1.2-1.32,1.79-2.08-.59.76-1.63,2.38-1.79,2.08Z"/>
      <path class="cls-25" d="M123.98,160.52c-.08-.53-.08-1.04.04-1.63.31.53.43,1.1-.04,1.63Z"/>
      <path class="cls-25" d="M123.34,163.76l.31-1.45c.36.38.42,1.04-.31,1.45Z"/>
      <path class="cls-30" d="M124.98,111.25h0c-.28.02-1.28.13-1.85.35-2.17.53-1.31,4.77-.83,6.12.71,1.99,1.46,3.83,2.27,5.78.09.22.29.39.48.37-.13.13-.36.53-.26.72l4.04,8,.49.99-1.54,4.18c-.25.97-.55,1.9-.7,2.83-.11.16-.2.45-.29.72l-.74,2.21-3.33,9.06-.2.18c-.44-.54-.77-1.21-1.12-1.88l-1.77-3.35-.72-1.06c-.65-.96-1.13-2-1.84-3.17-.53.44-.89.84-1.39,1.13.35-.49.63-1.08,1.25-1.02.06,0,.08-.2.02-.21l-.05-.2-.71-1.13c-.72,1.27-.37,1.65-1.11,2.53.22-1.03.74-1.99,1.2-2.95l1.79-3.77,1.6-3.19,2.8-5.53,1.68-3.34c.13-.26.33-.63.36-.9.03-.2-.29-.48-.46-.69-2.83-3.54-5.82-8.61-7.07-12.89v-.14c2.66-.84,5.47-.63,8.01.26Z"/>
      <path class="cls-31" d="M116.16,141.7c-.13-.07.13.34.03.17l-1.39-2.14c-.33-.55-.73-1.51-1.15-1.9h0l2.63-22.84.55-3.86.15-.13c1.26,4.28,4.98,10.06,7.81,13.59.17.21.03-.2,0,0-.04.27-3.45,6.67-3.58,6.93l-5.05,10.18Z"/>
      <path class="cls-33" d="M116.84,111.12c-.06,1.13-.45,4.34-.45,4.34l-.37,3.1-1.65,12.84s-.56,6.95-.75,6.93l-6.54-11.74c-.18-.32-1.69-3.66-1.69-3.66l.18-.15c0-.1.1-.19.28-.34l2.26-2.85,1.81-2.18c1.53-1.85,4.84-5.41,6.92-6.29Z"/>
      <path class="cls-38" d="M121.54,105.6c1.39.57,2.85,1.14,4.15,2l1.4.92c1.42,1.59,2.66,3.33,3.48,5.28l-.07.13s-.28-.02-.37-.09c-1.28-1.08-3.46-2-5.15-2.59-2.55-.89-5.36-1.1-8-.26-.15-.35-.28-.72-.41-1.16-.88-2.9-2.35-5.63-4.57-7.6v-.14s1.52.68,1.52.68l3.94,1.57c1.41.62.97.26,6.41,2.51l-2.34-1.25Z"/>
      <path class="cls-39" d="M109.1,129.59s-2.13-3.62-3.53-6.81l-3.42,4.67c-.89,1.22-1.88,2.42-2.59,3.76-.71.88-1.2,1.78-1.93,2.97l-.99-2.53.1,1.14c.82.9-.09,1.21,1.17,1.47l.05.64c.88,1.8,10.04,19.67,10.04,19.67h0s7.83-12.15,8.28-13.11c-.13-.07-5.14-7.89-7.18-11.87Z"/>
      <path class="cls-6" d="M113.94,102.4l.96.49,6.64,2.71,4.15,2c-.27.11.19-.04,0,0-.77.16-4.45-1.72-7.48-2.76l-4.69-2.06-1.51-.68.26-.19-.79-.86c.68.4,1.76,1.01,2.45,1.35Z"/>
      <path class="cls-1" d="M70.46,117.31c-.39-.75-.79-1.52-1.32-2.17l.04.18-.04-.18c-.58-1.1-1.2-2.16-1.86-3.29l-4.62-7.86c-.16-.27-.32-.69-.43-1-1.05-1.45-2.44-3.86-3.35-5.42-.29-.3-.54-.7-.81-1.12-.68-1.05-1.39-2.04-2.12-2.96-.2-.25-.36-.8-.58-1.03l-.6-.64-2.44-2.52-.3-.47c-.15-.24-.54-.57-.76-.78-.56-.53-1.13-1.09-1.5-1.75l-.41-.43c-.55-.58-.96-1.26-1.44-1.89l-1.36-1.78-1.74-2.49c-.11-.16-.34-.35-.51-.46l-.18,1.91-.15,2.2-.04,6.73h.15l.03-2.94c.34,2.08,1.33,4.3,2.47,6.01,1.94,2.94,4.18,5.58,6.59,8.06.8.95,2.99,3.31,3.96,4.09,3.61,3.91,7.62,7.55,11.82,10.82h0s1.52,1.18,1.52,1.18Z"/>
      <path class="cls-27" d="M182.02,79.35c-2.05,2.85-9.8,12.06-11.28,13.36-.08.07-.58,1.12-.75,1.35-.76,1.05-13.72,22.97-13.72,22.97,0,0,.09-.25,0,0,0,0,.92-.54,1.4-.91,2.85-2.24,4.22-3.25,6.8-5.79,0,0,8.61-7.77,9.81-9.13,3.25-3.68,7.31-9.1,8.45-12.22.22-4.71-.37-8.66-.71-9.62Z"/>
      <path class="cls-26" d="M141.02,126.39l-.39.82-3.09,5.84c-.78,1.48-1.63,2.9-2.61,4.24-.74,1-.92,1.12-2.85,3.59-.17.22.19-.15,0,0l-2.07-5.38c-.22-.57-.47-.85-.63-1.36l.05-.27-.16-.29c0,.14.08-.26.08-.26,3.49-2.42,8.12-4.81,11.67-6.92Z"/>
      <path class="cls-47" d="M132.08,140.88s-.86-2.79-2.64-7.02l-.11-.28-.24.35c-4.8,13.05-6.44,18.71-6.44,18.71,0,.04.05.12.08.09l5.84-7.01.28-.45,3.24-4.38c.08-.1.02-.03,0,0-.03-.16.06.15,0,0Z"/>
      <path class="cls-40" d="M128.61,106.55c-1.02-1.96-2.48-3.47-4.14-4.89l-.32-.1c-2.9-2.33-12.27-4.9-12.67-5.05l-2.35-.89c-.35-.12-2.7-1.17-3.56-1.58-1.88-.91-2.93-1.8-4.67-2.77.04.12.75,1.25.92,1.55.96,1.73,2.4,3.03,3.77,4.31.54.51,2.99,2.3,3.61,2.74.5.35,1.77,1.05,2.29,1.35,0,0,1.76.83,2.45,1.18l.96.49,6.64,2.71c1.39.57,2.85,1.14,4.15,2l1.4.92c1.42,1.59,2.66,3.33,3.48,5.28-.17-2.66-.73-4.88-1.97-7.26Z"/>
      <path class="cls-41" d="M93.39,125.26c-.07-.35-4.36-8.99-4.36-8.99-.85-1.81-2.62-5.42-2.62-5.42-.45-.22-4.59-2.58-6.89-3.79-2.2-1.16-5.66-2.85-7.96-3.84h0s-.3,0,3.09,4.72c1.52,2.13,6.53,10.35,6.53,10.35.23.41,1.43,2.58,1.7,3.07,0,0,2.64,5,2.96,5.44,2.21,1.05,4.28,2.2,6.41,3.53l5.35,3.92-4.19-9Z"/>
      <path class="cls-4" d="M116.87,142.37s-1.44,1.75-1.44,1.75c-.26.28-.23.19-.42.39-.32.32-.98,1.92-.98,1.92-.06.27-1.31,3.79-1.31,3.79-.11.35-2.14,6.89-2.6,8.52h0c-.03.09.05,0,0,0l1.34,3.22c.51,1.22,1.63,4.81,1.63,4.81.07-.04,6.9-9.59,7.73-10.98.12-.21,1.45-2.13,1.91-3.08-1.55-3.96-5.14-9.18-5.85-10.35Z"/>
      <path class="cls-3" d="M117.04,142.63c-1.15.78-3.19,4.33-2.89,3.58,0,0,.62-2.22,2.13-4.76,0,0,.69,1.05.76,1.18h0Z"/>
      <path class="cls-45" d="M140.74,110.43l-1.04.59-2.7,1.96c-2.19,1.59-7.72,6.05-12.49,11.31,0,0-.1-.19,0,0l4.18,8.13h0s.64,1.31.64,1.31c-.02-.31,2.67-5.48,3.21-6.89l3.96-8.76c.84-1.85,2.6-5.29,3.74-6.9,0,0,.53-.75.51-.75Z"/>
    </g>
    <path class="cls-32" d="M68.52,135.77s18.41,8.8,19.03,8.8l7.04,9.2,1.7,5.49s-12.2-10.44-18.42-12.39l-9.35-11.11Z"/>
    <path class="cls-50" d="M44.92,79.91s4.7,7.91,12.04,13.77l13.67,23.76s-11.88-8.28-22.26-21.23c-2.99-3.72-4.08-7.84-4.2-8.64-.3-1.94.76-7.65.76-7.65Z"/>
    <path class="cls-19" d="M42.44,109.45s8.86,7.8,12.73,8.53l13.33,17.86s-10.63-6.04-15.23-10.52c-2.05-1.99-3.83-3.97-6.57-7.38-1.53-1.91-4.38-8.49-4.3-8.51h.05Z"/>
    <path class="cls-49" d="M76.97,128.06s12.38,6.97,14.08,8.67c2.37,2.37,3.5,4.34,3.5,4.34,0,0-1.5,2.6-.74,9.1.13,1.12.78,3.61.78,3.61-8.05-9.31-17.62-25.71-17.62-25.71Z"/>
    <path class="cls-35" d="M103.58,106.1s-.52,13.4,2.06,16.78l-7.81,11.66s-3.31-5.79-1.64-13.31c1.27-5.71,7.39-15.13,7.39-15.13Z"/>
    <path class="cls-34" d="M116.9,143s7.28-5.72,12.42-9.42c0,0-3.69,11.22-6.78,18.71l-5.64-9.29Z"/>
    <path class="cls-36" d="M129.32,133.58s10.49-6.58,11.4-7.04c.3-.15,12.4-22.31,12.4-22.31.87-.04-7.73,3.22-13.61,6.9l-10.19,22.45Z"/>
    <path class="cls-37" d="M149.94,127.85s5.29-9.77,5.74-10.44c0,0-14.47,8.64-14.66,8.98-3.12,5.38-4.8,9.19-5.7,10.32-.9,1.12,14.62-8.85,14.62-8.85Z"/>
  </g>
</svg>