<svg width="30" height="30" viewBox="0 0 30 30" fill="none" xmlns="http://www.w3.org/2000/svg">
    <path
        d="M2.88941 29.9994H14.9272L14.2346 24.6853H6.46718C5.83356 24.6853 5.31991 24.1673 5.31991 23.5282V6.48033C5.31991 5.84058 5.83288 5.3213 6.46718 5.31894H11.7021L11.0053 0.000574452H2.88941C1.33213 -0.0306074 0.0417271 1.21152 0 2.7819V27.2095C0.0371359 28.7833 1.32889 30.0306 2.88941 29.9994Z"
        fill="white" />
    <path
        d="M25.2144 0.000570158H13.1724L13.865 5.31894H21.6366C22.2709 5.3213 22.7839 5.84058 22.7839 6.48032V23.5282C22.7839 24.1673 22.2703 24.6853 21.6366 24.6853H16.4017L17.0986 29.9994H25.2144C26.7717 30.0306 28.0621 28.7885 28.1038 27.2181V2.79046C28.0667 1.21671 26.7749 -0.030557 25.2144 0.000570158Z"
        fill="white" />
</svg>